<svg xmlns="http://www.w3.org/2000/svg"  viewBox="0 0 64 64" width="96px" height="96px"><path d="M 32 10 C 19.85 10 10 19.85 10 32 C 10 44.15 19.85 54 32 54 C 44.15 54 54 44.15 54 32 C 54 19.85 44.15 10 32 10 z M 32 14 C 41.941 14 50 22.059 50 32 C 50 41.941 41.941 50 32 50 C 22.059 50 14 41.941 14 32 C 14 22.059 22.059 14 32 14 z M 33.529297 18.787109 C 33.267688 18.834641 33.045875 19.0335 32.984375 19.3125 L 32.984375 19.324219 L 31.359375 26.957031 C 28.297375 27.006031 25.316297 27.947063 22.779297 29.664062 C 21.488297 28.450063 19.454234 28.510641 18.240234 29.806641 C 17.026234 31.097641 17.086813 33.131703 18.382812 34.345703 C 18.634812 34.580703 18.923094 34.783781 19.246094 34.925781 C 19.224094 35.248781 19.224094 35.571531 19.246094 35.894531 C 19.246094 40.822531 24.988312 44.830078 32.070312 44.830078 C 39.152313 44.830078 44.894531 40.827531 44.894531 35.894531 C 44.916531 35.571531 44.916531 35.248781 44.894531 34.925781 C 45.998531 34.372781 46.693875 33.236 46.671875 32 C 46.606875 30.228 45.118797 28.844297 43.341797 28.904297 C 42.554797 28.931297 41.805328 29.255875 41.236328 29.796875 C 38.731328 28.090875 35.789625 27.155844 32.765625 27.089844 L 34.193359 20.226562 L 38.900391 21.216797 C 39.032391 22.424797 40.115219 23.298969 41.324219 23.167969 C 42.532219 23.035969 43.406391 21.953141 43.275391 20.744141 C 43.143391 19.536141 42.062516 18.661969 40.853516 18.792969 C 40.159516 18.863969 39.536406 19.267141 39.191406 19.869141 L 33.798828 18.792969 C 33.707078 18.772469 33.6165 18.771266 33.529297 18.787109 z M 26.876953 32 C 28.090953 32 29.080078 32.989125 29.080078 34.203125 C 29.080078 35.417125 28.090953 36.408203 26.876953 36.408203 C 25.656953 36.397203 24.671875 35.417125 24.671875 34.203125 C 24.671875 32.989125 25.662953 32 26.876953 32 z M 37.058594 32.076172 C 38.272594 32.076172 39.261719 33.065297 39.261719 34.279297 C 39.310719 35.493297 38.364391 36.517406 37.150391 36.566406 L 37.042969 36.566406 L 37.058594 36.484375 C 35.844594 36.484375 34.853516 35.493297 34.853516 34.279297 C 34.853516 33.065297 35.844594 32.076172 37.058594 32.076172 z M 27.039062 39.279297 C 27.172437 39.279297 27.305969 39.324062 27.417969 39.414062 C 28.740969 40.382063 30.353141 40.875828 31.994141 40.798828 C 33.635141 40.885828 35.25375 40.415984 36.59375 39.458984 C 36.83375 39.223984 37.227891 39.229703 37.462891 39.470703 C 37.697891 39.711703 37.692172 40.104844 37.451172 40.339844 L 37.451172 40.251953 C 35.887172 41.427953 33.974578 42.029266 32.017578 41.947266 C 30.059578 42.029266 28.144078 41.427953 26.580078 40.251953 C 26.372078 39.999953 26.410109 39.622062 26.662109 39.414062 C 26.771609 39.324063 26.905688 39.279297 27.039062 39.279297 z"/></svg>