<?xml version="1.0" standalone="no"?>
<!DOCTYPE svg PUBLIC "-//W3C//DTD SVG 20010904//EN"
 "http://www.w3.org/TR/2001/REC-SVG-20010904/DTD/svg10.dtd">
<svg version="1.0" xmlns="http://www.w3.org/2000/svg"
 width="1024.000000pt" height="1024.000000pt" viewBox="0 0 1024.000000 1024.000000"
 preserveAspectRatio="xMidYMid meet">
<metadata>
Created by potrace 1.14, written by Peter Selinger 2001-2017
</metadata>
<g transform="translate(0.000000,1024.000000) scale(0.100000,-0.100000)"
fill="#000000" stroke="none">
<path d="M0 5120 l0 -5120 5120 0 5120 0 0 5120 0 5120 -5120 0 -5120 0 0
-5120z m5755 4029 c77 -16 208 -36 290 -44 165 -15 205 -24 405 -90 209 -68
297 -104 366 -150 37 -25 81 -45 106 -49 42 -7 95 -38 174 -102 22 -18 74 -59
116 -92 88 -70 158 -150 236 -271 62 -97 75 -125 105 -230 20 -70 22 -96 20
-337 l-1 -261 -47 -153 c-53 -175 -59 -189 -130 -285 -73 -97 -75 -109 -28
-133 21 -11 92 -27 158 -36 180 -25 284 -43 340 -60 144 -42 219 -78 245 -120
42 -66 63 -114 69 -154 5 -40 10 -46 40 -57 79 -26 166 -243 178 -440 4 -77 1
-105 -21 -190 -44 -166 -106 -238 -315 -364 -152 -92 -192 -102 -406 -104
-132 -2 -167 1 -203 15 -23 10 -54 18 -67 18 l-25 0 6 -87 c15 -214 32 -296
115 -533 28 -79 47 -253 54 -505 7 -199 5 -232 -14 -344 -18 -102 -29 -138
-62 -200 -47 -88 -115 -192 -156 -238 -39 -44 -198 -161 -288 -211 -196 -110
-435 -143 -865 -122 -420 21 -503 23 -565 10 -33 -7 -76 -13 -95 -12 -246 7
-298 1 -475 -54 -177 -56 -246 -64 -536 -64 -295 0 -415 12 -554 56 -50 16
-134 31 -228 40 -185 18 -286 42 -422 98 -128 53 -183 94 -339 250 -155 156
-217 229 -247 291 -13 28 -32 62 -42 77 -10 15 -24 58 -32 95 -8 37 -24 100
-35 138 -33 112 -41 322 -34 951 l7 572 -24 13 c-19 11 -92 14 -349 14 -302 0
-325 1 -328 18 -5 23 76 190 175 363 43 77 94 168 113 204 42 81 98 158 165
230 28 30 76 93 107 140 72 112 156 237 220 330 50 72 135 274 153 360 11 55
75 228 116 311 21 42 53 115 73 161 19 47 47 107 62 134 36 66 136 211 176
255 18 20 44 49 57 65 171 204 281 301 404 358 21 10 73 45 115 79 182 147
330 221 552 278 47 12 90 25 95 29 6 4 64 25 130 45 66 21 161 53 210 71 71
27 100 33 135 29 25 -3 101 3 170 14 106 17 157 19 330 14 174 -4 226 -9 345
-34z m319 -6116 c10 -32 20 -101 23 -153 5 -84 2 -110 -26 -220 -17 -69 -31
-133 -31 -143 0 -10 -7 -28 -14 -40 -14 -21 -40 -116 -34 -123 2 -1 21 1 43 7
22 5 94 18 159 29 65 11 121 22 124 24 9 10 23 173 18 213 -5 37 -2 44 24 66
41 35 109 59 156 55 l39 -3 7 -60 c7 -57 3 -200 -8 -257 -5 -25 -3 -27 43 -33
26 -3 86 -13 131 -21 46 -8 86 -13 89 -10 3 3 -9 60 -25 128 -47 190 -46 174
-13 198 41 28 99 48 170 56 l59 6 12 -88 c7 -49 17 -94 22 -101 5 -7 13 -52
16 -100 7 -86 8 -88 34 -91 34 -4 73 16 146 77 69 57 132 92 170 92 105 2 134
-9 115 -41 -7 -11 -13 -26 -13 -33 0 -8 -21 -29 -47 -46 -93 -64 -101 -97 -40
-162 19 -20 37 -48 41 -62 3 -15 11 -27 16 -27 5 0 7 -7 4 -15 -5 -11 -2 -13
10 -9 31 12 136 -137 114 -163 -8 -10 -6 -18 7 -33 9 -10 22 -18 29 -17 6 1
12 -10 14 -25 2 -16 11 -30 23 -33 14 -5 19 -15 19 -40 0 -48 18 -82 50 -95
20 -8 36 -30 60 -83 18 -40 43 -86 56 -104 22 -29 24 -40 24 -157 0 -72 -4
-127 -10 -131 -5 -3 -10 -17 -10 -30 0 -13 -6 -30 -13 -37 -8 -7 -12 -21 -9
-31 4 -16 1 -18 -17 -12 -25 8 -27 -2 -4 -27 16 -18 15 -21 -33 -66 -28 -26
-53 -54 -56 -62 -9 -26 -19 -4 -23 50 -3 42 -1 51 11 46 9 -3 20 7 32 31 19
35 19 36 -5 59 -12 13 -23 32 -23 42 0 11 -9 22 -19 25 -17 4 -18 13 -16 78 2
63 0 75 -17 89 -14 11 -18 23 -14 36 3 10 6 24 7 29 0 6 5 15 11 22 7 9 1 14
-24 21 -26 6 -34 14 -36 35 -2 15 -9 27 -17 27 -17 0 -27 27 -20 51 5 14 1 19
-13 19 -11 0 -23 8 -26 18 -16 41 -32 61 -51 64 -12 2 -30 22 -48 56 -16 28
-32 52 -38 52 -5 0 -9 18 -9 41 0 36 -2 40 -20 34 -11 -3 -26 -2 -34 2 -19 10
-86 104 -86 119 0 6 -27 32 -59 57 -45 36 -61 44 -69 34 -12 -14 -10 -136 3
-157 5 -8 8 -27 7 -42 -1 -16 5 -39 14 -53 10 -16 14 -34 10 -51 -5 -18 -2
-32 10 -45 10 -11 15 -28 12 -44 -3 -14 -1 -28 4 -31 5 -3 4 -12 -3 -20 -9
-11 -9 -21 1 -44 7 -16 9 -41 6 -56 -8 -29 -73 -94 -96 -94 -8 0 -24 -7 -34
-15 -11 -8 -27 -15 -36 -15 -16 0 -64 77 -59 95 2 6 -2 19 -8 30 -17 31 -27
112 -14 120 8 4 5 15 -9 33 -12 14 -20 38 -19 52 1 14 -1 32 -4 40 -3 8 -8 35
-11 59 -4 24 -19 64 -33 89 -24 40 -25 49 -16 86 6 22 9 53 6 67 -3 15 0 30 6
33 6 4 11 11 11 16 0 10 -70 7 -87 -3 -15 -9 -96 3 -104 15 -4 6 -21 6 -45 -1
-22 -6 -51 -11 -65 -11 -33 0 -39 -15 -39 -89 0 -69 -18 -261 -30 -314 -6 -26
-4 -49 5 -70 21 -53 39 -205 39 -337 0 -176 -4 -191 -59 -218 -61 -29 -109
-29 -140 2 -41 41 -60 159 -30 189 11 11 12 23 5 47 -27 95 -32 196 -20 415 8
128 10 261 6 318 -9 116 -8 116 -149 98 -105 -13 -211 -57 -220 -91 -4 -17
-14 -20 -69 -20 -75 0 -134 15 -142 35 -4 10 -20 15 -53 15 -32 0 -60 7 -83
22 -19 12 -51 23 -70 24 -19 1 -59 5 -87 9 l-53 8 0 -69 c1 -38 7 -105 15
-149 8 -44 15 -134 15 -200 0 -84 5 -132 16 -160 l15 -41 -41 -62 c-23 -34
-47 -62 -53 -62 -7 0 -29 -5 -49 -11 l-38 -10 1 -92 c1 -66 -3 -104 -16 -137
-9 -25 -18 -54 -20 -65 -1 -12 -9 -19 -19 -19 -18 2 -22 -22 -5 -28 20 -7 -1
-47 -31 -63 -16 -8 -37 -28 -47 -45 -20 -34 -32 -38 -34 -12 -1 9 -2 34 -3 55
-2 28 1 37 11 33 8 -3 21 10 33 34 l20 39 -20 11 c-12 6 -23 24 -26 40 -4 15
-14 30 -23 33 -14 3 -17 16 -15 78 1 63 -2 75 -19 89 -20 16 -20 18 -4 58 l17
42 -33 8 c-23 6 -33 15 -35 32 -2 14 -13 31 -24 38 -14 10 -18 21 -14 38 5 20
3 24 -15 24 -13 0 -19 5 -16 13 3 7 -4 19 -14 25 -10 7 -19 19 -19 27 0 8 -9
15 -20 15 -13 0 -27 12 -38 31 -9 17 -27 47 -39 66 -13 18 -23 47 -23 64 0 26
-3 29 -20 24 -11 -3 -26 -2 -34 2 -19 10 -86 104 -86 119 0 6 -27 32 -59 57
-45 36 -61 44 -69 34 -13 -15 -9 -136 5 -161 6 -10 8 -27 6 -37 -3 -11 2 -31
12 -45 10 -16 15 -38 12 -57 -2 -19 1 -37 10 -46 9 -8 13 -26 11 -43 -3 -16
-1 -31 4 -34 5 -3 4 -12 -3 -20 -9 -11 -9 -21 0 -40 21 -47 14 -74 -31 -115
-24 -22 -50 -39 -58 -39 -8 0 -24 -7 -34 -15 -11 -8 -27 -15 -35 -15 -16 0
-64 79 -59 96 1 5 -3 19 -10 31 -6 12 -9 28 -6 36 3 8 1 18 -5 22 -14 8 -14
52 0 60 7 5 4 14 -8 27 -10 12 -18 35 -18 59 0 21 -2 39 -6 39 -3 0 -9 25 -13
56 -4 32 -15 67 -28 84 -13 18 -21 42 -20 62 1 18 3 54 5 80 1 26 8 53 15 59
6 7 12 20 12 29 0 13 -2 13 -9 1 -13 -21 -41 3 -41 35 0 12 -5 35 -10 49 l-10
26 -26 -20 c-15 -12 -37 -21 -49 -21 -12 0 -42 -7 -68 -16 -41 -14 -47 -20
-53 -52 -19 -99 -4 -750 17 -778 29 -37 14 -249 -21 -289 -9 -11 -22 -29 -27
-39 -7 -12 -34 -25 -79 -36 -67 -17 -68 -17 -90 4 -18 17 -24 39 -33 124 -13
125 -14 272 -2 272 16 0 0 201 -21 280 -18 65 -19 88 -12 175 12 140 10 256
-4 282 -8 14 -25 24 -50 28 -52 9 -190 62 -219 85 l-25 20 -28 -39 c-36 -49
-95 -77 -195 -91 -130 -18 -118 -8 -138 -106 -15 -72 -60 -224 -84 -283 -4 -9
0 -11 13 -8 11 3 132 35 269 71 239 63 305 76 305 58 0 -18 -65 -84 -105 -108
-49 -28 -759 -254 -801 -254 -26 0 -26 1 -19 47 5 38 17 58 58 103 103 113
152 268 144 455 -9 203 -52 334 -119 368 -46 22 -156 46 -269 56 -49 5 -95 14
-104 21 -8 7 -15 28 -15 46 0 29 5 36 36 49 67 28 158 47 242 52 71 3 88 1
121 -18 38 -21 46 -22 258 -16 135 3 281 13 383 27 170 22 189 22 252 -4 l38
-16 -17 -43 c-9 -23 -19 -45 -22 -49 -3 -4 -76 -14 -161 -22 -85 -9 -217 -24
-292 -33 -159 -19 -148 -6 -126 -144 l11 -77 36 -6 c47 -8 152 -7 219 0 44 6
52 10 52 28 0 28 25 63 61 85 26 16 35 17 80 5 28 -8 56 -18 63 -23 16 -13
129 -52 135 -46 10 11 13 294 2 365 -10 72 -9 76 12 92 41 31 217 62 230 41 3
-5 13 -120 22 -258 10 -137 19 -251 20 -253 2 -3 166 35 170 40 2 2 -7 50 -20
108 -15 64 -20 108 -15 115 20 24 105 58 171 68 38 6 71 8 74 6 2 -3 10 -41
16 -85 6 -43 15 -86 19 -95 13 -24 22 -83 24 -142 1 -49 3 -52 29 -55 33 -4
92 29 157 86 78 68 127 87 215 83 56 -2 74 -15 58 -41 -7 -11 -13 -26 -13 -35
0 -8 -10 -19 -21 -26 -38 -20 -109 -91 -109 -109 0 -9 18 -38 40 -63 22 -25
40 -52 40 -60 0 -8 7 -20 15 -27 9 -7 13 -20 11 -27 -4 -10 -1 -13 14 -8 15 5
26 -4 50 -37 50 -68 71 -113 58 -126 -11 -11 16 -47 36 -47 6 0 12 -9 15 -20
2 -11 14 -30 27 -42 18 -17 23 -29 18 -47 -3 -15 1 -34 13 -52 l18 -28 5 44
c3 25 3 52 -1 60 -10 23 -32 365 -26 409 3 28 -1 52 -13 78 -11 21 -22 50 -25
65 -6 24 -3 29 32 43 155 65 212 68 332 21 47 -19 109 -40 136 -46 31 -8 58
-22 72 -38 20 -24 23 -24 29 -8 6 15 14 17 45 12 20 -3 44 -8 52 -12 19 -7 87
152 87 202 0 19 7 51 15 71 21 49 19 169 -4 278 l-19 90 38 38 c38 36 41 37
113 37 l74 0 17 -57z"/>
<path d="M5003 9059 c-24 -4 -64 -17 -89 -29 -26 -11 -75 -27 -108 -36 -34 -8
-90 -29 -126 -46 -36 -17 -107 -41 -158 -55 -146 -38 -216 -67 -418 -178 -74
-41 -145 -77 -157 -81 -12 -4 -81 -36 -154 -72 -123 -61 -140 -73 -236 -166
-104 -102 -250 -272 -344 -401 -59 -81 -149 -258 -223 -436 -28 -68 -58 -137
-65 -154 -7 -16 -21 -57 -30 -90 -10 -33 -35 -112 -57 -175 -57 -168 -86 -279
-109 -420 -35 -216 -40 -270 -44 -450 -2 -99 -11 -218 -21 -274 -9 -54 -14
-112 -11 -129 3 -18 0 -86 -5 -152 -21 -254 -25 -867 -8 -1221 7 -155 13 -199
44 -320 19 -76 40 -152 46 -169 12 -30 113 -171 257 -355 76 -98 134 -155 209
-208 43 -29 229 -101 282 -109 l43 -6 -41 64 c-60 92 -113 209 -155 339 -21
63 -66 193 -101 287 -35 95 -64 177 -64 182 0 4 -11 42 -24 82 -33 102 -93
476 -79 490 7 7 15 -8 27 -53 39 -151 58 -213 76 -249 11 -21 20 -51 20 -66 0
-88 163 -441 292 -633 92 -136 214 -287 275 -339 63 -54 197 -123 303 -155 47
-14 108 -34 135 -43 75 -25 396 -33 495 -12 106 22 126 27 275 77 83 27 202
62 265 77 111 28 118 31 221 106 94 70 197 140 414 281 39 25 108 64 154 87
46 24 100 58 120 78 20 19 48 42 63 51 34 20 35 30 6 36 -118 25 -153 28 -287
22 -156 -8 -271 -32 -410 -87 -98 -39 -137 -43 -267 -29 -60 7 -190 16 -289
20 -173 6 -184 8 -275 42 -158 58 -249 105 -313 160 -129 112 -226 214 -246
258 -40 88 -20 108 31 33 29 -45 184 -173 207 -173 7 0 7 9 1 26 -6 14 -10 40
-10 58 0 99 -75 402 -136 548 -27 64 -28 68 -16 68 5 0 25 -24 45 -52 20 -29
54 -73 75 -97 25 -28 50 -74 68 -124 28 -77 52 -107 84 -107 8 0 51 -27 95
-60 44 -34 139 -90 210 -126 72 -36 154 -81 184 -100 30 -18 86 -46 125 -60
110 -42 204 -102 165 -105 -48 -4 -271 64 -399 121 -47 21 -111 48 -143 60
-31 13 -87 40 -123 62 -36 22 -68 38 -70 35 -4 -4 49 -158 62 -178 3 -5 15 3
27 17 17 19 32 26 59 26 48 0 139 -27 209 -63 52 -26 159 -114 201 -165 16
-19 28 -21 156 -23 l139 -2 149 50 c139 45 161 50 319 62 94 8 240 13 325 11
371 -8 333 -10 372 20 51 39 83 116 97 228 24 190 53 320 71 320 11 0 12 -10
15 -133 1 -48 5 -90 8 -93 8 -9 44 57 66 121 54 162 209 420 237 393 4 -4 -53
-215 -67 -252 -7 -17 -50 -113 -96 -213 -45 -101 -86 -195 -89 -210 -6 -25 -2
-23 37 21 65 72 84 105 70 119 -19 19 -13 36 42 102 29 35 74 102 101 150 55
99 77 102 51 9 -9 -33 -20 -74 -25 -93 -16 -63 -81 -205 -133 -291 -46 -75
-63 -92 -152 -157 -55 -40 -120 -83 -145 -96 -70 -35 -168 -97 -240 -150 -36
-27 -94 -65 -130 -84 -36 -20 -89 -51 -117 -69 -29 -19 -61 -34 -72 -34 -67 0
-172 -67 -376 -240 -81 -69 -160 -134 -176 -145 -16 -11 -29 -22 -29 -25 0 -3
253 -5 563 -5 l562 0 194 58 c107 32 203 63 214 69 150 80 302 231 367 366 57
118 65 162 65 352 0 210 -14 326 -66 525 -42 162 -69 306 -69 364 0 50 -18
111 -33 111 -7 0 -23 -21 -36 -46 -12 -26 -34 -62 -48 -81 -28 -36 -81 -78
-89 -70 -3 3 15 38 40 78 25 41 48 92 52 114 l6 40 -33 -32 c-19 -17 -79 -57
-134 -89 -142 -80 -435 -224 -457 -224 -11 0 -33 -7 -50 -16 -18 -9 -42 -14
-59 -10 -18 3 -52 -4 -91 -18 -85 -32 -132 -42 -126 -26 8 24 216 121 298 140
57 13 90 27 175 75 28 15 79 44 115 63 103 56 179 114 261 198 76 79 132 164
107 164 -7 0 -33 -10 -58 -21 -25 -11 -85 -34 -133 -50 -49 -17 -95 -33 -103
-36 -8 -3 -14 1 -14 8 0 16 49 48 158 104 39 21 72 41 72 46 0 11 -2 11 -80
-6 -36 -8 -78 -14 -94 -15 -30 0 -233 -87 -326 -139 -79 -44 -162 -83 -167
-77 -3 3 0 13 8 22 22 26 189 149 234 172 22 11 49 29 59 41 11 12 23 21 28
21 5 0 65 22 134 50 111 44 135 50 223 56 94 5 106 3 294 -45 107 -27 217 -53
245 -57 101 -13 227 34 366 138 44 33 102 72 128 87 55 30 93 92 128 210 19
63 22 89 17 173 -4 86 -10 108 -40 171 -38 79 -66 113 -104 128 -40 15 -197
11 -250 -7 -72 -25 -249 -112 -326 -161 -182 -116 -228 -128 -492 -126 -178 1
-223 5 -295 23 -47 12 -114 28 -150 36 -36 8 -76 20 -90 28 -14 7 -65 19 -115
26 -49 7 -128 23 -175 35 -47 13 -102 26 -122 29 -21 4 -120 34 -220 67 -215
70 -286 80 -476 68 -155 -9 -232 -31 -360 -99 -141 -75 -162 -106 -181 -269
-11 -91 -4 -186 19 -246 23 -59 2 -61 -40 -3 -38 51 -50 98 -61 218 -11 119
-11 104 0 180 17 123 75 270 107 270 18 0 18 -7 -1 -60 -31 -89 -10 -118 50
-70 59 47 159 99 250 130 72 26 109 31 267 41 161 11 193 10 263 -4 179 -37
234 -54 265 -82 28 -26 35 -28 275 -86 94 -22 195 -50 225 -61 30 -11 87 -26
125 -33 39 -7 104 -21 145 -30 58 -14 123 -18 290 -19 234 -1 249 2 297 58 13
14 27 26 33 26 5 0 40 20 77 43 138 89 338 161 478 174 39 3 73 11 77 17 19
28 6 63 -39 112 -81 87 -116 104 -255 125 -283 42 -431 76 -478 109 -29 20
-130 64 -210 90 -30 9 -79 27 -108 39 -50 20 -62 21 -170 12 -65 -5 -135 -14
-157 -20 -22 -5 -83 -17 -135 -27 -52 -9 -117 -25 -145 -34 -27 -9 -71 -20
-98 -24 -93 -14 -538 -129 -705 -183 -102 -32 -127 -22 -59 25 25 16 56 33 69
37 12 4 37 18 55 31 17 13 53 29 80 35 26 7 89 25 138 40 50 15 108 30 130 34
83 14 376 98 545 156 161 56 184 61 287 66 128 7 228 -6 329 -43 37 -13 70
-24 75 -24 8 0 97 111 148 185 80 118 95 196 95 515 1 289 -5 317 -95 461 -74
120 -142 196 -230 259 -34 25 -87 68 -118 97 -31 29 -90 68 -131 89 -41 20
-92 48 -114 62 -69 43 -295 133 -401 159 -156 38 -365 72 -514 83 -75 6 -180
20 -233 31 -117 23 -143 23 -219 4 -32 -8 -97 -22 -145 -31 -81 -14 -173 -42
-391 -122 -107 -39 -123 -17 -23 33 19 10 43 24 52 33 10 8 66 38 125 68 102
50 106 52 68 52 -22 0 -59 -4 -82 -9z m-1035 -934 c128 -33 216 -87 340 -208
48 -47 73 -82 104 -147 22 -47 48 -101 58 -120 55 -103 66 -140 42 -140 -4 0
-29 27 -56 60 -27 34 -50 59 -51 58 -2 -2 0 -23 5 -48 9 -51 1 -80 -17 -58 -6
7 -25 58 -42 113 -42 137 -89 212 -176 284 -107 88 -142 109 -240 141 -137 45
-189 66 -193 80 -6 17 141 8 226 -15z m92 -335 c0 -5 -15 -17 -32 -26 -18 -9
-40 -25 -49 -37 -21 -26 -44 -14 -28 14 20 38 109 78 109 49z m210 -538 c30
-11 89 -36 130 -57 89 -44 233 -86 310 -90 76 -4 195 -21 209 -29 6 -4 11 -16
11 -27 0 -10 6 -19 13 -19 8 0 21 -8 30 -17 130 -143 157 -183 124 -183 -8 0
-22 10 -33 22 -16 18 -189 108 -208 108 -3 0 -6 -8 -6 -18 0 -21 -42 -63 -85
-85 -16 -8 -63 -23 -104 -33 -127 -30 -276 -6 -456 75 -50 23 -105 68 -105 87
0 21 -12 17 -35 -10 -11 -13 -30 -27 -42 -31 -18 -5 -23 -2 -23 13 0 11 6 22
13 25 7 2 0 14 -20 31 -18 15 -33 32 -33 37 0 14 100 0 128 -18 20 -12 27 -12
64 9 37 21 39 23 17 26 -33 5 -46 19 -31 35 8 7 53 14 115 17 l102 5 -90 29
c-49 15 -106 34 -125 42 -41 18 -90 58 -90 75 0 18 152 4 220 -19z m-400 -187
c0 -8 -7 -15 -15 -15 -16 0 -20 12 -8 23 11 12 23 8 23 -8z m1018 -212 c-6
-55 -220 -194 -324 -210 l-39 -6 20 23 c20 23 20 23 0 16 -44 -16 -174 -25
-251 -17 -86 9 -207 55 -240 92 -30 33 -8 31 72 -8 l79 -38 150 1 c194 1 285
8 315 24 35 18 130 93 159 124 33 36 63 35 59 -1z m24 -115 c-20 -21 -57 -49
-289 -228 -93 -71 -217 -134 -256 -128 -27 4 -34 26 -10 34 100 32 153 63 231
137 52 48 90 77 100 74 10 -2 36 12 60 31 94 75 221 137 164 80z m-847 -124
c125 -41 132 -44 114 -54 -32 -18 -174 28 -211 68 -26 29 -36 30 97 -14z m724
-236 c-34 -169 -59 -349 -59 -420 0 -75 17 -184 35 -230 5 -13 2 -18 -9 -18
-19 0 -74 73 -83 109 -3 14 -15 36 -27 49 -18 20 -21 36 -21 115 0 96 18 169
70 282 12 28 26 61 30 75 11 35 44 80 59 80 10 0 11 -10 5 -42z m936 -238 c50
-5 117 -20 150 -33 33 -13 94 -32 135 -41 41 -10 82 -26 90 -35 8 -10 24 -22
35 -28 19 -11 18 -12 -7 -18 -33 -9 -156 10 -278 42 -119 31 -207 28 -292 -10
-54 -24 -79 -22 -62 5 5 8 -8 9 -50 4 -74 -8 -163 -40 -233 -82 -97 -58 -108
-45 -30 38 127 137 291 185 542 158z m-1865 -159 c22 -30 40 -58 40 -62 0 -4
26 -36 58 -71 31 -35 77 -93 102 -128 25 -35 73 -94 108 -131 38 -40 59 -70
53 -74 -22 -13 -115 51 -182 125 -118 131 -181 219 -219 309 -50 118 -34 130
40 32z m2885 24 c86 -33 136 -46 195 -51 54 -5 80 -11 80 -19 0 -16 -23 -25
-60 -25 -16 0 -32 -4 -35 -10 -10 -16 -60 -12 -116 10 -36 13 -65 17 -93 14
-65 -9 -336 58 -336 82 0 7 15 15 33 18 17 3 57 9 87 14 100 17 125 14 245
-33z m-2400 -327 c80 -77 161 -132 261 -178 46 -21 134 -72 196 -113 62 -41
151 -97 198 -124 47 -28 110 -66 141 -85 69 -42 211 -76 389 -92 72 -6 124
-15 123 -21 -1 -5 -35 -14 -75 -18 -70 -7 -244 8 -370 33 -53 11 -348 164
-423 220 -90 67 -182 127 -244 160 -97 52 -367 321 -344 344 6 6 46 -28 148
-126z m-3 -285 c66 -86 229 -237 307 -283 105 -64 127 -108 39 -80 -100 32
-164 70 -230 137 -119 120 -211 273 -165 273 7 0 29 -21 49 -47z m1476 -179
c53 -15 113 -31 132 -36 19 -5 140 -13 268 -17 217 -7 271 -15 249 -37 -11
-12 -343 -35 -428 -30 -65 3 -112 14 -185 40 -141 50 -183 64 -233 78 -25 7
-47 19 -49 27 -7 21 126 8 246 -25z m-128 -359 c102 0 183 -5 194 -12 10 -6
48 -8 87 -5 58 4 69 2 69 -11 0 -8 -21 -26 -47 -39 -43 -21 -61 -23 -178 -22
-178 2 -378 36 -406 70 -6 8 -24 14 -40 14 -15 0 -31 5 -35 12 -5 8 17 9 87 3
52 -5 173 -9 269 -10z m-797 -58 c143 -105 353 -216 454 -241 32 -8 87 -23
123 -34 36 -10 96 -22 133 -26 45 -5 67 -12 64 -19 -6 -19 -89 -20 -246 -3
-140 15 -150 18 -246 65 -118 58 -156 83 -265 176 -70 60 -110 107 -110 130 0
14 26 1 93 -48z m1382 -117 c9 -15 -43 -43 -104 -55 -34 -7 -79 -9 -116 -4
-33 4 -68 8 -78 8 -10 1 -17 7 -15 14 9 26 298 61 313 37z m-2507 -1074 c20
-18 71 -53 112 -78 41 -25 107 -65 145 -89 54 -33 84 -45 130 -50 33 -3 114
-20 179 -38 100 -26 137 -31 235 -31 64 0 141 -3 171 -7 l55 -6 -60 -14 c-53
-12 -315 -26 -465 -25 -154 1 -380 134 -567 335 -29 31 -53 61 -53 67 0 15 74
-25 118 -64z"/>
<path d="M4322 7037 c-43 -45 -19 -80 39 -57 33 14 54 44 45 66 -9 22 -60 17
-84 -9z"/>
<path d="M4580 6990 c0 -5 7 -10 15 -10 8 0 15 5 15 10 0 6 -7 10 -15 10 -8 0
-15 -4 -15 -10z"/>
<path d="M2599 6738 c-67 -78 -54 -62 -152 -194 -45 -61 -94 -126 -109 -145
-47 -60 -218 -350 -218 -371 0 -11 -22 -54 -49 -95 -47 -71 -70 -127 -57 -140
3 -3 21 2 40 11 42 20 56 20 56 1 0 -18 2 -18 33 -4 14 6 31 22 38 36 13 25
68 60 70 46 1 -5 0 -18 -1 -30 -2 -31 33 -43 121 -43 100 0 114 17 149 180 70
327 69 323 100 521 13 87 14 86 -14 60 -17 -16 -31 -21 -45 -16 -28 9 -55 -8
-82 -52 -37 -60 -131 -183 -140 -183 -5 0 -4 11 1 25 18 48 78 131 204 280
115 138 140 175 117 175 -4 0 -32 -28 -62 -62z"/>
<path d="M4675 4124 c4 -33 12 -65 17 -71 12 -15 213 -18 222 -4 16 25 -126
111 -209 127 l-38 7 8 -59z"/>
<path d="M3970 1618 c0 -19 2 -20 10 -8 13 19 13 30 0 30 -5 0 -10 -10 -10
-22z"/>
<path d="M3858 1563 c7 -3 16 -2 19 1 4 3 -2 6 -13 5 -11 0 -14 -3 -6 -6z"/>
<path d="M5077 1473 c-4 -3 -7 -17 -7 -31 l0 -24 19 23 c18 23 19 39 2 39 -4
0 -11 -3 -14 -7z"/>
<path d="M7697 1473 c-4 -3 -7 -17 -7 -31 l0 -24 19 23 c18 23 19 39 2 39 -4
0 -11 -3 -14 -7z"/>
<path d="M5150 1245 c0 -17 47 -51 57 -41 7 7 -36 56 -49 56 -4 0 -8 -7 -8
-15z"/>
<path d="M7770 1247 c0 -16 32 -47 48 -47 19 0 14 14 -11 38 -27 25 -37 28
-37 9z"/>
</g>
</svg>
